# xmcd
#
# Track frame offsets:
#	150
#	16118
#	30093
#	45630
#	58130
#	69437
#	84892
#	99063
#	113642
#	126936
#	143170
#	158115
#	169208
#	183581
#	195462
#	211620
#	226348
#	240321
#	253434
#	270191
#	286619
#	296319
#	309787
#	323439
#	337459
#
# Disc length: 4670 seconds
#
# Revision: 0
# Processed by: cddbd v1.4PL0 Copyright (c) Steve Scherf et al.
# Submitted via: EasyCDDAExtractor 4.6.0.1
#
DISCID=42123c19
DTITLE=Various Artist - ABSOLUTE BEST DANSBAND - Vol.1
DYEAR=1989
DGENRE=Country
TTITLE0=SENORITA - Matz Bladhs
TTITLE1=NÅR DET VÅRES IBLAND BERGEN - Vikingarna
TTITLE2=OM DET ÄR SÅ - Kikki Danielsson
TTITLE3=VINDENS MELODI - Dannys
TTITLE4=BUGGAR-ALFRED - Lajbans
TTITLE5=SAN MARTINIQUE - Alfstarz
TTITLE6=TUSEN KYSSAR - Dancemän
TTITLE7=ISABELLA - Wizex
TTITLE8=DRÖMMARNAS TID ÄR FÖRBI - Thorleifs
TTITLE9=SA JAG NÅNSIN - Hobsons
TTITLE10=UNG OCH EVIG - Paul Sahlin and Säwes med Anne Kihlström
TTITLE11=VISA LITE HÄNSYN - Stig Lorentz
TTITLE12=NÄR LIVET LEKER - Leif Bloms
TTITLE13=EN ENDA SIGNAL - Lasse Stefanz
TTITLE14=EN TRO PÅ KÄRLEKEN - Berth Idoffs
TTITLE15=EN SÅNG ATT MINNAS - Trastinis
TTITLE16=DU OCH INGEN ANNAN - Schytts
TTITLE17=SOL OCH VARMA DAGAR - Thor-Görans
TTITLE18=GENOM VATTEN OCH ELD - Lotta Engberg
TTITLE19=TACK VARE KÄRLEKEN - Ingmar Nordströms
TTITLE20=VAR DET IGÅR - Sten and Stanley 
TTITLE21=DET FINNS NÅGON SOM VÄNTAR DÄRHEMMA - Flamingokvintetten
TTITLE22=KÄRLEK UTAN GRÄNS - Scandix, med Lisbet Jagedal 
TTITLE23=FAMNEN FULL UTAV SOLSKEN - Thor Freddys
TTITLE24=I AFTON DANS - Dolbyz
EXTD=
EXTT0=
EXTT1=
EXTT2=
EXTT3=
EXTT4=
EXTT5=
EXTT6=
EXTT7=
EXTT8=
EXTT9=
EXTT10=
EXTT11=
EXTT12=
EXTT13=
EXTT14=
EXTT15=
EXTT16=
EXTT17=
EXTT18=
EXTT19=
EXTT20=
EXTT21=
EXTT22=
EXTT23=
EXTT24=
PLAYORDER=
